<?xml version="1.0" encoding="UTF-8"?>
<svg width="54px" height="54px" viewBox="0 0 54 54" version="1.1" xmlns="http://www.w3.org/2000/svg" xmlns:xlink="http://www.w3.org/1999/xlink">
    <!-- Generator: Sketch 52.2 (67145) - http://www.bohemiancoding.com/sketch -->
    <title>Group</title>
    <desc>Created with Sketch.</desc>
    <g id="Symbols" stroke="none" stroke-width="1" fill="none" fill-rule="evenodd">
        <g id="r1/active-control">
            <g id="Group">
                <circle id="Oval" fill="#F2F3F4" cx="27" cy="27" r="27"></circle>
                <g id="r1/active-close" transform="translate(17.000000, 15.000000)" fill="#68767F">
                    <path d="M7.98443611,10.4828609 L0.186771347,2.34960743 C-0.0622571158,2.10031106 -0.0622571158,1.85101843 0.186771347,1.60172205 L1.58754945,0.19943697 C1.86770647,-0.0498594031 2.1167312,-0.0654401926 2.3346311,0.152694133 L11.8599222,10.1089182 C11.9533079,10.2024044 12,10.3270507 12,10.4828609 C12,10.6386712 11.9533079,10.7633175 11.8599222,10.8568036 L2.3346311,20.8130277 C2.08560264,21.0623241 1.83657791,21.0623241 1.58754945,20.8130277 L0.186771347,19.3639998 C-0.0622571158,19.1147034 -0.0622571158,18.8654108 0.186771347,18.6161144 L7.98443611,10.4828609 Z" id=""></path>
                    <path d="M15.9844361,10.4828609 L8.18677135,2.34960743 C7.93774288,2.10031106 7.93774288,1.85101843 8.18677135,1.60172205 L9.58754945,0.19943697 C9.86770647,-0.0498594031 10.1167312,-0.0654401926 10.3346311,0.152694133 L19.8599222,10.1089182 C19.9533079,10.2024044 20,10.3270507 20,10.4828609 C20,10.6386712 19.9533079,10.7633175 19.8599222,10.8568036 L10.3346311,20.8130277 C10.0856026,21.0623241 9.83657791,21.0623241 9.58754945,20.8130277 L8.18677135,19.3639998 C7.93774288,19.1147034 7.93774288,18.8654108 8.18677135,18.6161144 L15.9844361,10.4828609 Z" id="-copy" transform="translate(14.000000, 10.500000) scale(-1, 1) translate(-14.000000, -10.500000) "></path>
                </g>
            </g>
        </g>
    </g>
</svg>